<svg width="164" height="56" viewBox="0 0 164 56" fill="none" xmlns="http://www.w3.org/2000/svg">
<path d="M0 -7.62939e-06H25.1451L25.1737 0.143446C25.0075 0.240994 24.8383 0.335674 24.6691 0.430353C21.0938 2.39854 19.1871 5.45123 19.1154 9.49375C19.0208 14.7298 19.0896 19.9687 19.0925 25.2077C19.0925 25.3195 19.1126 25.4286 19.1269 25.5921C20.8897 25.6828 22.6564 25.5156 24.3709 25.0958C26.0912 24.674 27.7542 24.126 29.4086 23.5436C32.604 22.4227 35.9578 21.8193 39.3433 21.7562C39.4809 21.7562 39.6157 21.7332 39.8221 21.7131V20.9442C39.8221 17.2345 39.8451 13.5277 39.8221 9.81795C39.7791 5.45123 37.8122 2.22639 33.8326 0.286899C33.7334 0.224242 33.6377 0.15624 33.5459 0.0831954H58.8745C58.6824 0.209435 58.5562 0.306983 58.4186 0.370103C54.7085 2.37845 52.7531 5.47418 52.7445 9.70032C52.7215 21.6816 52.7215 33.6638 52.7445 45.6469C52.7445 49.9505 54.6655 53.1237 58.4788 55.1521C58.5935 55.2153 58.7024 55.2927 58.9605 55.4391H33.5C34.0132 55.1521 34.3602 54.9857 34.7128 54.7792C37.9986 52.7708 39.7619 49.8472 39.7992 46.0084C39.8594 39.7997 39.8164 33.5882 39.8164 27.3738V26.5905C38.2624 26.7455 36.7514 26.7713 35.3006 27.0725C33.535 27.4358 31.7985 27.9287 30.1053 28.5472C26.7799 29.7812 23.2744 30.4597 19.729 30.5556C19.5455 30.5556 19.3649 30.5843 19.081 30.6044V31.4307C19.081 36.1101 19.081 40.7924 19.081 45.4748C19.081 49.8702 20.9705 53.161 24.9071 55.2296C24.9989 55.2755 25.0791 55.3386 25.3228 55.5165C24.9903 55.5366 24.844 55.5538 24.6978 55.5538H0.209303C0.137624 55.5538 0.0688121 55.5538 0 55.5538V55.3731C0.100351 55.3157 0.200702 55.2583 0.30392 55.2067C4.10579 53.2815 6.13288 50.2001 6.14721 45.9367C6.18162 33.812 6.14721 21.6902 6.14721 9.56548C6.1686 8.25207 5.9295 6.94746 5.44376 5.72712C4.95801 4.50678 4.23526 3.39494 3.31732 2.45592C2.39409 1.4833 1.3361 0.651272 0 0.286899V-7.62939e-06Z" fill="black"/>
<path d="M124.92 55.4621C125.281 55.244 125.462 55.1293 125.648 55.026C127.713 53.8784 128.859 52.1282 129.054 49.7928C129.195 48.1316 129.324 46.4675 129.327 44.8035C129.35 33.1015 129.35 21.3986 129.327 9.69465C129.276 7.96323 129.104 6.23752 128.811 4.53032C128.555 2.78019 127.423 1.60387 125.981 0.688638C125.711 0.516493 125.436 0.347218 125.164 0.172205C125.164 0.172205 125.149 0.134907 125.121 0.0402276C125.353 0.0402276 125.565 0.00292969 125.78 0.00292969C129.052 0.00292969 132.323 0.00292969 135.592 0.00292969C136.026 0.0148655 136.452 0.120566 136.842 0.312789C139.345 1.54649 140.492 3.67247 140.595 6.35218C140.718 9.24421 140.718 12.1391 140.77 15.034C140.77 15.2836 140.77 15.5332 140.77 15.8574C141.478 15.8574 142.12 15.8574 142.762 15.8574C145.822 15.7472 148.88 16.1229 151.823 16.9706C158.532 18.979 162.838 24.1433 163.598 31.1065C164.06 35.3614 163.75 39.5072 162.136 43.5095C159.842 49.1645 155.47 52.4582 149.87 54.3661C147.561 55.1444 145.139 55.5323 142.702 55.5137C137.019 55.5137 131.337 55.5137 125.654 55.5137C125.485 55.5109 125.31 55.4879 124.92 55.4621ZM140.824 19.3634V52.0048C141.988 52.0048 143.101 52.0508 144.207 52.0048C144.993 51.9814 145.772 51.858 146.527 51.6376C149.242 50.7769 150.937 48.9349 151.479 46.1032C152.425 41.1368 152.158 36.1991 150.994 31.3102C150.203 27.9936 148.861 24.9151 146.627 22.2899C145.131 20.5139 143.29 19.3806 140.824 19.3634Z" fill="black"/>
<path d="M94.3597 33.0462H70.4533C70.9952 36.8419 71.8467 40.4283 74.6422 43.1682C78.0341 46.4906 82.0424 47.2395 86.4865 45.6873C88.978 44.8266 91.0567 43.2687 92.9548 41.4669C93.1154 41.3148 93.2845 41.18 93.4508 41.0222L93.6114 41.1083C93.4623 41.5702 93.3247 42.0407 93.1612 42.494C91.6158 46.6283 89.2533 50.2118 85.8069 53.0034C82.9599 55.2987 79.6397 56.1393 76.0012 55.9815C68.9824 55.6774 61.7571 50.0626 59.7731 41.88C58.3595 36.0558 58.2362 30.1857 60.4784 24.5451C63.1305 17.8688 68.0735 13.5393 75.1726 12.2081C81.6811 10.9744 87.0972 13.307 90.9937 19.5501C92.6996 22.2814 93.5569 25.3226 93.9612 28.4929C94.1504 29.9648 94.225 31.4624 94.3597 33.0462ZM83.1491 28.361C82.8968 26.9063 82.7104 25.5321 82.4151 24.1807C81.899 21.8051 81.1421 19.5099 79.6339 17.5302C79.0032 16.7097 78.2434 16.0412 77.1768 15.8461C75.5855 15.5592 74.4558 16.3453 73.5183 17.4843C71.7378 19.6447 70.9378 22.2097 70.588 24.9439C70.4361 26.0743 70.3615 27.2162 70.2497 28.3868L83.1491 28.361Z" fill="black"/>
<path d="M117.067 29.7177C117.101 27.1728 116.989 24.7743 116.387 22.4274C116.029 21.0301 115.527 19.6846 114.529 18.6C114.153 18.1784 113.685 17.849 113.161 17.6376C112.636 17.4261 112.071 17.3382 111.507 17.3807V18.0492C111.507 27.4569 111.507 36.8646 111.533 46.2751C111.575 47.6155 111.713 48.9511 111.946 50.2717C112.233 52.2284 113.342 53.6544 115.008 54.6757C115.226 54.8077 115.441 54.9454 115.653 55.086C115.685 55.109 115.699 55.1606 115.765 55.2696H95.6605C95.8145 55.1393 95.9763 55.0186 96.1451 54.9081C98.608 53.6056 99.6373 51.4337 99.8179 48.7798C99.924 47.2334 99.9871 45.6812 99.9871 44.1319C99.9871 36.7154 99.9871 29.2988 99.9469 21.8851C99.9005 20.6833 99.748 19.488 99.491 18.3131C99.1413 16.4655 97.9657 15.1916 96.4146 14.2247L95.6376 13.7484C95.8261 13.7006 96.0177 13.6661 96.211 13.6452C102.519 13.6452 108.827 13.6308 115.134 13.6624C116.943 13.6753 118.735 14.0175 120.421 14.6723C123.678 15.9175 125.427 18.4021 126.245 21.6757C126.448 22.479 126.87 23.4402 126.6 24.0857C126.331 24.7312 125.339 25.0411 124.633 25.4485C122.34 26.7626 120.046 28.0536 117.752 29.3533C117.554 29.4652 117.356 29.5656 117.067 29.7177Z" fill="black"/>
</svg>
